<svg width="471" height="77" viewBox="0 0 471 77" fill="none" xmlns="http://www.w3.org/2000/svg">
<rect width="471" height="77" fill="white"/>
<path d="M9 67.8803C9 58.2444 9 48.4938 9 38.6284C9 28.7631 9 19.0125 9 9.37656C12.4471 9.37656 15.923 9.37656 19.4275 9.37656C22.9321 9.37656 26.4079 9.37656 29.855 9.37656C34.1065 9.37656 38.0132 10.1222 41.5752 11.6135C45.1373 13.0474 48.2397 15.0835 50.8824 17.7219C53.5252 20.3604 55.5648 23.4576 57.0011 27.0137C58.4948 30.5125 59.2417 34.3554 59.2417 38.5424C59.2417 42.7294 58.4948 46.601 57.0011 50.1571C55.5648 53.7132 53.5252 56.8392 50.8824 59.5349C48.2397 62.1733 45.1373 64.2382 41.5752 65.7294C38.0132 67.1633 34.1065 67.8803 29.855 67.8803C26.4079 67.8803 22.9321 67.8803 19.4275 67.8803C15.923 67.8803 12.4471 67.8803 9 67.8803ZM29.855 22.9701C28.9358 22.9701 27.9879 22.9701 27.0112 22.9701C26.0345 22.9701 25.0578 22.9701 24.0811 22.9701C24.0811 28.1322 24.0811 33.3516 24.0811 38.6284C24.0811 43.9052 24.0811 49.1247 24.0811 54.2868C25.0578 54.2868 26.0345 54.2868 27.0112 54.2868C27.9879 54.2868 28.9358 54.2868 29.855 54.2868C32.7276 54.2868 35.2268 53.5985 37.3525 52.2219C39.4782 50.8454 41.1156 48.9813 42.2647 46.6297C43.4137 44.2207 43.9882 41.5249 43.9882 38.5424C43.9882 35.5599 43.4137 32.8928 42.2647 30.5411C41.1156 28.1895 39.4782 26.3541 37.3525 25.0349C35.2268 23.6584 32.7276 22.9701 29.855 22.9701Z" fill="black"/>
<path d="M60.2051 67.8803C63.1926 58.2444 66.1801 48.4938 69.1676 38.6284C72.2126 28.7631 75.2288 19.0125 78.2163 9.37656C81.606 9.37656 85.0244 9.37656 88.4715 9.37656C91.976 9.37656 95.4232 9.37656 98.8128 9.37656C101.8 19.0125 104.788 28.7631 107.775 38.6284C110.82 48.4938 113.836 58.2444 116.824 67.8803C114.354 67.8803 111.826 67.8803 109.24 67.8803C106.712 67.8803 104.185 67.8803 101.657 67.8803C101.082 66.0449 100.536 64.2095 100.019 62.3741C99.5022 60.4813 98.9565 58.6172 98.3819 56.7818C95.1072 56.7818 91.8037 56.7818 88.4715 56.7818C85.1967 56.7818 81.922 56.7818 78.6472 56.7818C78.0727 58.6172 77.5269 60.4813 77.0098 62.3741C76.4928 64.2095 75.947 66.0449 75.3724 67.8803C72.902 67.8803 70.3741 67.8803 67.7888 67.8803C65.2609 67.8803 62.733 67.8803 60.2051 67.8803ZM82.439 43.9626C84.4498 43.9626 86.4607 43.9626 88.4715 43.9626C90.5398 43.9626 92.5793 43.9626 94.5901 43.9626C93.6134 40.5786 92.608 37.1658 91.5739 33.7244C90.5397 30.283 89.5343 26.8703 88.5577 23.4863C87.581 26.8703 86.5468 30.283 85.4553 33.7244C84.4211 37.1658 83.4157 40.5786 82.439 43.9626Z" fill="black"/>
<path d="M146.874 69.2569C142.68 69.2569 138.802 68.5112 135.24 67.02C131.678 65.4713 128.604 63.3204 126.019 60.5673C123.433 57.8142 121.423 54.5736 119.986 50.8454C118.55 47.0599 117.832 42.9589 117.832 38.5424C117.832 34.1259 118.55 30.0536 119.986 26.3254C121.423 22.5973 123.433 19.3853 126.019 16.6895C128.604 13.9364 131.678 11.8142 135.24 10.3229C138.802 8.77431 142.68 8 146.874 8C151.068 8 154.917 8.77431 158.422 10.3229C161.984 11.8142 165.057 13.9364 167.643 16.6895C170.285 19.3853 172.325 22.5973 173.761 26.3254C175.198 30.0536 175.916 34.1259 175.916 38.5424C175.916 43.303 175.083 47.6908 173.417 51.7057C171.751 55.6633 169.452 59.0187 166.522 61.7718C167.327 63.091 168.16 64.4676 169.022 65.9015C169.883 67.2781 170.716 68.6259 171.521 69.9451C169.567 71.0923 167.585 72.2681 165.574 73.4726C163.621 74.6771 161.668 75.8529 159.714 77C158.853 75.5661 157.962 74.1035 157.043 72.6122C156.181 71.1783 155.319 69.7444 154.457 68.3105C153.251 68.5973 152.016 68.8267 150.752 68.9988C149.488 69.1708 148.195 69.2569 146.874 69.2569ZM133.258 38.5424C133.258 41.8117 133.775 44.7082 134.809 47.2319C135.901 49.7556 137.452 51.7344 139.463 53.1683C141.473 54.6022 143.829 55.3479 146.529 55.4052C145.61 53.914 144.691 52.4227 143.771 50.9314C142.91 49.4402 142.019 47.9776 141.1 46.5436C143.053 45.3965 145.007 44.2207 146.96 43.0162C148.971 41.8117 150.953 40.6359 152.906 39.4888C153.825 40.9227 154.716 42.3853 155.578 43.8766C156.497 45.3678 157.416 46.8591 158.335 48.3504C159.025 47.0312 159.542 45.5399 159.887 43.8766C160.289 42.2132 160.49 40.4352 160.49 38.5424C160.49 35.2157 159.915 32.3192 158.766 29.8529C157.675 27.3865 156.124 25.4651 154.113 24.0885C152.102 22.6546 149.689 21.9377 146.874 21.9377C144.116 21.9377 141.703 22.6259 139.635 24.0025C137.624 25.3791 136.044 27.3292 134.895 29.8529C133.804 32.3192 133.258 35.2157 133.258 38.5424Z" fill="black"/>
<path d="M231.873 45.6833C231.873 49.2968 231.241 52.5661 229.978 55.4913C228.771 58.3591 227.048 60.8254 224.807 62.8903C222.624 64.9551 220.038 66.5324 217.051 67.6222C214.121 68.712 210.932 69.2569 207.485 69.2569C203.981 69.2569 200.763 68.712 197.833 67.6222C194.903 66.5324 192.347 64.9838 190.163 62.9763C188.038 60.9115 186.372 58.4451 185.165 55.5773C183.959 52.7095 183.355 49.4688 183.355 45.8554C183.355 39.8329 183.355 33.7531 183.355 27.616C183.355 21.4788 183.355 15.399 183.355 9.37656C185.883 9.37656 188.411 9.37656 190.939 9.37656C193.467 9.37656 195.966 9.37656 198.436 9.37656C198.436 15.2843 198.436 21.2207 198.436 27.1858C198.436 33.1509 198.436 39.0873 198.436 44.995C198.436 48.0923 199.298 50.5873 201.022 52.48C202.745 54.3728 204.957 55.3192 207.657 55.3192C210.358 55.3192 212.541 54.3728 214.207 52.48C215.931 50.5873 216.792 48.0923 216.792 44.995C216.792 39.0873 216.792 33.1509 216.792 27.1858C216.792 21.2207 216.792 15.2843 216.792 9.37656C219.32 9.37656 221.848 9.37656 224.376 9.37656C226.904 9.37656 229.403 9.37656 231.873 9.37656C231.873 15.3416 231.873 21.3928 231.873 27.5299C231.873 33.6671 231.873 39.7182 231.873 45.6833Z" fill="black"/>
<path d="M235.759 67.8803C238.746 58.2444 241.734 48.4938 244.721 38.6284C247.766 28.7631 250.783 19.0125 253.77 9.37656C257.16 9.37656 260.578 9.37656 264.025 9.37656C267.53 9.37656 270.977 9.37656 274.367 9.37656C277.354 19.0125 280.342 28.7631 283.329 38.6284C286.374 48.4938 289.39 58.2444 292.378 67.8803C289.907 67.8803 287.379 67.8803 284.794 67.8803C282.266 67.8803 279.738 67.8803 277.21 67.8803C276.636 66.0449 276.09 64.2095 275.573 62.3741C275.056 60.4813 274.51 58.6172 273.936 56.7818C270.661 56.7818 267.357 56.7818 264.025 56.7818C260.75 56.7818 257.476 56.7818 254.201 56.7818C253.626 58.6172 253.081 60.4813 252.564 62.3741C252.047 64.2095 251.501 66.0449 250.926 67.8803C248.456 67.8803 245.928 67.8803 243.343 67.8803C240.815 67.8803 238.287 67.8803 235.759 67.8803ZM257.993 43.9626C260.004 43.9626 262.014 43.9626 264.025 43.9626C266.093 43.9626 268.133 43.9626 270.144 43.9626C269.167 40.5786 268.162 37.1658 267.128 33.7244C266.093 30.283 265.088 26.8703 264.111 23.4863C263.135 26.8703 262.101 30.283 261.009 33.7244C259.975 37.1658 258.969 40.5786 257.993 43.9626Z" fill="black"/>
<path d="M297.999 67.8803C297.999 58.2444 297.999 48.4938 297.999 38.6284C297.999 28.7631 297.999 19.0125 297.999 9.37656C300.527 9.37656 303.055 9.37656 305.582 9.37656C308.11 9.37656 310.61 9.37656 313.08 9.37656C313.08 16.7756 313.08 24.2606 313.08 31.8317C313.08 39.3454 313.08 46.8017 313.08 54.2007C316.125 54.2007 319.199 54.2007 322.301 54.2007C325.403 54.2007 328.448 54.2007 331.436 54.2007C331.436 56.4377 331.436 58.7319 331.436 61.0835C331.436 63.3778 331.436 65.6434 331.436 67.8803C325.92 67.8803 320.348 67.8803 314.717 67.8803C309.087 67.8803 303.514 67.8803 297.999 67.8803Z" fill="black"/>
<path d="M340.088 67.8803C340.088 58.2444 340.088 48.4938 340.088 38.6284C340.088 28.7631 340.088 19.0125 340.088 9.37656C342.616 9.37656 345.144 9.37656 347.672 9.37656C350.2 9.37656 352.699 9.37656 355.169 9.37656C355.169 19.0125 355.169 28.7631 355.169 38.6284C355.169 48.4938 355.169 58.2444 355.169 67.8803C352.699 67.8803 350.2 67.8803 347.672 67.8803C345.144 67.8803 342.616 67.8803 340.088 67.8803Z" fill="black"/>
<path d="M361.239 67.8803C364.226 58.2444 367.214 48.4938 370.201 38.6284C373.246 28.7631 376.262 19.0125 379.25 9.37656C382.639 9.37656 386.058 9.37656 389.505 9.37656C393.009 9.37656 396.457 9.37656 399.846 9.37656C402.834 19.0125 405.821 28.7631 408.809 38.6284C411.854 48.4938 414.87 58.2444 417.857 67.8803C415.387 67.8803 412.859 67.8803 410.274 67.8803C407.746 67.8803 405.218 67.8803 402.69 67.8803C402.116 66.0449 401.57 64.2095 401.053 62.3741C400.536 60.4813 399.99 58.6172 399.415 56.7818C396.141 56.7818 392.837 56.7818 389.505 56.7818C386.23 56.7818 382.955 56.7818 379.681 56.7818C379.106 58.6172 378.56 60.4813 378.043 62.3741C377.526 64.2095 376.98 66.0449 376.406 67.8803C373.935 67.8803 371.408 67.8803 368.822 67.8803C366.294 67.8803 363.766 67.8803 361.239 67.8803ZM383.472 43.9626C385.483 43.9626 387.494 43.9626 389.505 43.9626C391.573 43.9626 393.613 43.9626 395.624 43.9626C394.647 40.5786 393.641 37.1658 392.607 33.7244C391.573 30.283 390.568 26.8703 389.591 23.4863C388.614 26.8703 387.58 30.283 386.489 33.7244C385.455 37.1658 384.449 40.5786 383.472 43.9626Z" fill="black"/>
<path d="M462 50.2431C462 54.6022 460.851 58.1584 458.553 60.9115C456.312 63.6072 453.267 65.5574 449.418 66.7618C445.626 67.9663 441.375 68.4825 436.664 68.3105C431.953 68.1958 427.155 67.4788 422.272 66.1596C422.272 63.6933 422.272 61.2269 422.272 58.7606C422.272 56.2943 422.272 53.8279 422.272 51.3616C426.753 52.9676 430.832 53.9713 434.509 54.3728C438.186 54.7743 441.116 54.6309 443.299 53.9426C445.483 53.197 446.574 51.9638 446.574 50.2431C446.574 49.0387 445.971 48.0636 444.764 47.318C443.558 46.515 441.978 45.798 440.025 45.1671C438.129 44.5362 436.118 43.8192 433.992 43.0162C431.866 42.1559 429.827 41.0948 427.874 39.8329C425.978 38.5137 424.426 36.8217 423.22 34.7569C422.014 32.6347 421.41 29.9963 421.41 26.8416C421.41 22.9414 422.444 19.6434 424.513 16.9476C426.581 14.2519 429.367 12.2157 432.872 10.8392C436.434 9.46259 440.456 8.77431 444.937 8.77431C449.475 8.77431 454.158 9.46259 458.984 10.8392C458.984 13.3055 458.984 15.7718 458.984 18.2382C458.984 20.7045 458.984 23.1708 458.984 25.6372C454.962 23.9165 451.257 22.884 447.867 22.5399C444.535 22.1384 441.863 22.3105 439.852 23.0561C437.841 23.7444 436.836 24.8915 436.836 26.4975C436.836 27.6446 437.439 28.591 438.646 29.3367C439.852 30.0823 441.403 30.7706 443.299 31.4015C445.253 31.9751 447.292 32.692 449.418 33.5524C451.544 34.3554 453.555 35.4451 455.451 36.8217C457.404 38.1409 458.984 39.8903 460.19 42.0698C461.397 44.192 462 46.9165 462 50.2431Z" fill="black"/>
</svg>
