<svg width="453" height="69" viewBox="0 0 453 69" fill="none" xmlns="http://www.w3.org/2000/svg">
<path d="M0 59.8803C0 50.2444 0 40.4938 0 30.6284C0 20.7631 0 11.0125 0 1.37656C3.44711 1.37656 6.92295 1.37656 10.4275 1.37656C13.9321 1.37656 17.4079 1.37656 20.855 1.37656C25.1065 1.37656 29.0132 2.1222 32.5752 3.61347C36.1373 5.04738 39.2397 7.08354 41.8824 9.72195C44.5252 12.3604 46.5648 15.4576 48.0011 19.0137C49.4948 22.5125 50.2417 26.3554 50.2417 30.5424C50.2417 34.7294 49.4948 38.601 48.0011 42.1571C46.5648 45.7132 44.5252 48.8392 41.8824 51.5349C39.2397 54.1733 36.1373 56.2382 32.5752 57.7294C29.0132 59.1633 25.1065 59.8803 20.855 59.8803C17.4079 59.8803 13.9321 59.8803 10.4275 59.8803C6.92295 59.8803 3.44711 59.8803 0 59.8803ZM20.855 14.9701C19.9358 14.9701 18.9879 14.9701 18.0112 14.9701C17.0345 14.9701 16.0578 14.9701 15.0811 14.9701C15.0811 20.1322 15.0811 25.3516 15.0811 30.6284C15.0811 35.9052 15.0811 41.1247 15.0811 46.2868C16.0578 46.2868 17.0345 46.2868 18.0112 46.2868C18.9879 46.2868 19.9358 46.2868 20.855 46.2868C23.7276 46.2868 26.2268 45.5985 28.3525 44.2219C30.4782 42.8454 32.1156 40.9813 33.2647 38.6297C34.4137 36.2207 34.9882 33.5249 34.9882 30.5424C34.9882 27.5599 34.4137 24.8928 33.2647 22.5411C32.1156 20.1895 30.4782 18.3541 28.3525 17.0349C26.2268 15.6584 23.7276 14.9701 20.855 14.9701Z" fill="white"/>
<path d="M51.2051 59.8803C54.1926 50.2444 57.1801 40.4938 60.1676 30.6284C63.2126 20.7631 66.2288 11.0125 69.2163 1.37656C72.606 1.37656 76.0244 1.37656 79.4715 1.37656C82.976 1.37656 86.4232 1.37656 89.8128 1.37656C92.8003 11.0125 95.7878 20.7631 98.7753 30.6284C101.82 40.4938 104.836 50.2444 107.824 59.8803C105.354 59.8803 102.826 59.8803 100.24 59.8803C97.7125 59.8803 95.1846 59.8803 92.6567 59.8803C92.0822 58.0449 91.5364 56.2095 91.0193 54.3741C90.5022 52.4813 89.9565 50.6172 89.3819 48.7818C86.1072 48.7818 82.8037 48.7818 79.4715 48.7818C76.1967 48.7818 72.922 48.7818 69.6472 48.7818C69.0727 50.6172 68.5269 52.4813 68.0098 54.3741C67.4928 56.2095 66.947 58.0449 66.3724 59.8803C63.902 59.8803 61.3741 59.8803 58.7888 59.8803C56.2609 59.8803 53.733 59.8803 51.2051 59.8803ZM73.439 35.9626C75.4498 35.9626 77.4607 35.9626 79.4715 35.9626C81.5398 35.9626 83.5793 35.9626 85.5901 35.9626C84.6134 32.5786 83.608 29.1658 82.5739 25.7244C81.5397 22.283 80.5343 18.8703 79.5577 15.4863C78.581 18.8703 77.5468 22.283 76.4553 25.7244C75.4211 29.1658 74.4157 32.5786 73.439 35.9626Z" fill="white"/>
<path d="M137.874 61.2569C133.68 61.2569 129.802 60.5112 126.24 59.02C122.678 57.4713 119.604 55.3204 117.019 52.5673C114.433 49.8142 112.423 46.5736 110.986 42.8454C109.55 39.0599 108.832 34.9589 108.832 30.5424C108.832 26.1259 109.55 22.0536 110.986 18.3254C112.423 14.5973 114.433 11.3853 117.019 8.68953C119.604 5.93641 122.678 3.81422 126.24 2.32294C129.802 0.774315 133.68 0 137.874 0C142.068 0 145.917 0.774315 149.422 2.32294C152.984 3.81422 156.057 5.93641 158.643 8.68953C161.285 11.3853 163.325 14.5973 164.761 18.3254C166.198 22.0536 166.916 26.1259 166.916 30.5424C166.916 35.303 166.083 39.6908 164.417 43.7057C162.751 47.6633 160.452 51.0187 157.522 53.7718C158.327 55.091 159.16 56.4676 160.022 57.9015C160.883 59.2781 161.716 60.6259 162.521 61.9451C160.567 63.0923 158.585 64.2681 156.574 65.4726C154.621 66.6771 152.668 67.8529 150.714 69C149.853 67.5661 148.962 66.1035 148.043 64.6122C147.181 63.1783 146.319 61.7444 145.457 60.3105C144.251 60.5973 143.016 60.8267 141.752 60.9988C140.488 61.1708 139.195 61.2569 137.874 61.2569ZM124.258 30.5424C124.258 33.8117 124.775 36.7082 125.809 39.2319C126.901 41.7556 128.452 43.7344 130.463 45.1683C132.473 46.6022 134.829 47.3479 137.529 47.4052C136.61 45.914 135.691 44.4227 134.771 42.9314C133.91 41.4402 133.019 39.9776 132.1 38.5436C134.053 37.3965 136.007 36.2207 137.96 35.0162C139.971 33.8117 141.953 32.6359 143.906 31.4888C144.825 32.9227 145.716 34.3853 146.578 35.8766C147.497 37.3678 148.416 38.8591 149.335 40.3504C150.025 39.0312 150.542 37.5399 150.887 35.8766C151.289 34.2132 151.49 32.4352 151.49 30.5424C151.49 27.2157 150.915 24.3192 149.766 21.8529C148.675 19.3865 147.124 17.4651 145.113 16.0885C143.102 14.6546 140.689 13.9377 137.874 13.9377C135.116 13.9377 132.703 14.6259 130.635 16.0025C128.624 17.3791 127.044 19.3292 125.895 21.8529C124.804 24.3192 124.258 27.2157 124.258 30.5424Z" fill="white"/>
<path d="M222.873 37.6833C222.873 41.2968 222.241 44.5661 220.978 47.4913C219.771 50.3591 218.048 52.8254 215.807 54.8903C213.624 56.9551 211.038 58.5324 208.051 59.6222C205.121 60.712 201.932 61.2569 198.485 61.2569C194.981 61.2569 191.763 60.712 188.833 59.6222C185.903 58.5324 183.347 56.9838 181.163 54.9763C179.038 52.9115 177.372 50.4451 176.165 47.5773C174.959 44.7095 174.355 41.4688 174.355 37.8554C174.355 31.8329 174.355 25.7531 174.355 19.616C174.355 13.4788 174.355 7.399 174.355 1.37656C176.883 1.37656 179.411 1.37656 181.939 1.37656C184.467 1.37656 186.966 1.37656 189.436 1.37656C189.436 7.28429 189.436 13.2207 189.436 19.1858C189.436 25.1509 189.436 31.0873 189.436 36.995C189.436 40.0923 190.298 42.5873 192.022 44.48C193.745 46.3728 195.957 47.3192 198.657 47.3192C201.358 47.3192 203.541 46.3728 205.207 44.48C206.931 42.5873 207.792 40.0923 207.792 36.995C207.792 31.0873 207.792 25.1509 207.792 19.1858C207.792 13.2207 207.792 7.28429 207.792 1.37656C210.32 1.37656 212.848 1.37656 215.376 1.37656C217.904 1.37656 220.403 1.37656 222.873 1.37656C222.873 7.34165 222.873 13.3928 222.873 19.5299C222.873 25.6671 222.873 31.7182 222.873 37.6833Z" fill="white"/>
<path d="M226.759 59.8803C229.746 50.2444 232.734 40.4938 235.721 30.6284C238.766 20.7631 241.783 11.0125 244.77 1.37656C248.16 1.37656 251.578 1.37656 255.025 1.37656C258.53 1.37656 261.977 1.37656 265.367 1.37656C268.354 11.0125 271.342 20.7631 274.329 30.6284C277.374 40.4938 280.39 50.2444 283.378 59.8803C280.907 59.8803 278.379 59.8803 275.794 59.8803C273.266 59.8803 270.738 59.8803 268.21 59.8803C267.636 58.0449 267.09 56.2095 266.573 54.3741C266.056 52.4813 265.51 50.6172 264.936 48.7818C261.661 48.7818 258.357 48.7818 255.025 48.7818C251.75 48.7818 248.476 48.7818 245.201 48.7818C244.626 50.6172 244.081 52.4813 243.564 54.3741C243.047 56.2095 242.501 58.0449 241.926 59.8803C239.456 59.8803 236.928 59.8803 234.343 59.8803C231.815 59.8803 229.287 59.8803 226.759 59.8803ZM248.993 35.9626C251.004 35.9626 253.014 35.9626 255.025 35.9626C257.093 35.9626 259.133 35.9626 261.144 35.9626C260.167 32.5786 259.162 29.1658 258.128 25.7244C257.093 22.283 256.088 18.8703 255.111 15.4863C254.135 18.8703 253.101 22.283 252.009 25.7244C250.975 29.1658 249.969 32.5786 248.993 35.9626Z" fill="white"/>
<path d="M288.999 59.8803C288.999 50.2444 288.999 40.4938 288.999 30.6284C288.999 20.7631 288.999 11.0125 288.999 1.37656C291.527 1.37656 294.055 1.37656 296.582 1.37656C299.11 1.37656 301.61 1.37656 304.08 1.37656C304.08 8.77556 304.08 16.2606 304.08 23.8317C304.08 31.3454 304.08 38.8017 304.08 46.2007C307.125 46.2007 310.199 46.2007 313.301 46.2007C316.403 46.2007 319.448 46.2007 322.436 46.2007C322.436 48.4377 322.436 50.7319 322.436 53.0835C322.436 55.3778 322.436 57.6434 322.436 59.8803C316.92 59.8803 311.348 59.8803 305.717 59.8803C300.087 59.8803 294.514 59.8803 288.999 59.8803Z" fill="white"/>
<path d="M331.088 59.8803C331.088 50.2444 331.088 40.4938 331.088 30.6284C331.088 20.7631 331.088 11.0125 331.088 1.37656C333.616 1.37656 336.144 1.37656 338.672 1.37656C341.2 1.37656 343.699 1.37656 346.169 1.37656C346.169 11.0125 346.169 20.7631 346.169 30.6284C346.169 40.4938 346.169 50.2444 346.169 59.8803C343.699 59.8803 341.2 59.8803 338.672 59.8803C336.144 59.8803 333.616 59.8803 331.088 59.8803Z" fill="white"/>
<path d="M352.239 59.8803C355.226 50.2444 358.214 40.4938 361.201 30.6284C364.246 20.7631 367.262 11.0125 370.25 1.37656C373.639 1.37656 377.058 1.37656 380.505 1.37656C384.009 1.37656 387.457 1.37656 390.846 1.37656C393.834 11.0125 396.821 20.7631 399.809 30.6284C402.854 40.4938 405.87 50.2444 408.857 59.8803C406.387 59.8803 403.859 59.8803 401.274 59.8803C398.746 59.8803 396.218 59.8803 393.69 59.8803C393.116 58.0449 392.57 56.2095 392.053 54.3741C391.536 52.4813 390.99 50.6172 390.415 48.7818C387.141 48.7818 383.837 48.7818 380.505 48.7818C377.23 48.7818 373.955 48.7818 370.681 48.7818C370.106 50.6172 369.56 52.4813 369.043 54.3741C368.526 56.2095 367.98 58.0449 367.406 59.8803C364.935 59.8803 362.408 59.8803 359.822 59.8803C357.294 59.8803 354.766 59.8803 352.239 59.8803ZM374.472 35.9626C376.483 35.9626 378.494 35.9626 380.505 35.9626C382.573 35.9626 384.613 35.9626 386.624 35.9626C385.647 32.5786 384.641 29.1658 383.607 25.7244C382.573 22.283 381.568 18.8703 380.591 15.4863C379.614 18.8703 378.58 22.283 377.489 25.7244C376.455 29.1658 375.449 32.5786 374.472 35.9626Z" fill="white"/>
<path d="M453 42.2431C453 46.6022 451.851 50.1584 449.553 52.9115C447.312 55.6072 444.267 57.5574 440.418 58.7618C436.626 59.9663 432.375 60.4825 427.664 60.3105C422.953 60.1958 418.155 59.4788 413.272 58.1596C413.272 55.6933 413.272 53.2269 413.272 50.7606C413.272 48.2943 413.272 45.8279 413.272 43.3616C417.753 44.9676 421.832 45.9713 425.509 46.3728C429.186 46.7743 432.116 46.6309 434.299 45.9426C436.483 45.197 437.574 43.9638 437.574 42.2431C437.574 41.0387 436.971 40.0636 435.764 39.318C434.558 38.515 432.978 37.798 431.025 37.1671C429.129 36.5362 427.118 35.8192 424.992 35.0162C422.866 34.1559 420.827 33.0948 418.874 31.8329C416.978 30.5137 415.426 28.8217 414.22 26.7569C413.014 24.6347 412.41 21.9963 412.41 18.8416C412.41 14.9414 413.444 11.6434 415.513 8.94763C417.581 6.25187 420.367 4.21571 423.872 2.83915C427.434 1.46259 431.456 0.774314 435.937 0.774314C440.475 0.774314 445.158 1.46259 449.984 2.83915C449.984 5.30549 449.984 7.77182 449.984 10.2382C449.984 12.7045 449.984 15.1708 449.984 17.6372C445.962 15.9165 442.257 14.884 438.867 14.5399C435.535 14.1384 432.863 14.3105 430.852 15.0561C428.841 15.7444 427.836 16.8915 427.836 18.4975C427.836 19.6446 428.439 20.591 429.646 21.3367C430.852 22.0823 432.403 22.7706 434.299 23.4015C436.253 23.9751 438.292 24.692 440.418 25.5524C442.544 26.3554 444.555 27.4451 446.451 28.8217C448.404 30.1409 449.984 31.8903 451.19 34.0698C452.397 36.192 453 38.9165 453 42.2431Z" fill="white"/>
</svg>
